<svg version="1.1" xmlns="http://www.w3.org/2000/svg" xmlns:xlink="http://www.w3.org/1999/xlink" width="16" height="16" viewBox="0,0,256,256"><g fill="#3f3f3f" fill-rule="nonzero" stroke="none" stroke-width="1" stroke-linecap="butt" stroke-linejoin="miter" stroke-miterlimit="10" stroke-dasharray="" stroke-dashoffset="0" font-family="none" font-weight="none" font-size="none" text-anchor="none" style="mix-blend-mode: normal"><g transform="translate(0,0) scale(16,16)"><path d="M14,3c0.00001,0.07652 -0.01249,0.15252 -0.037,0.225l-1.684,10.104c-0.16089,0.96475 -0.99593,1.67161 -1.974,1.671h-4.611c-0.97769,0.00012 -1.81217,-0.70663 -1.973,-1.671l-1.684,-10.104c-0.0245,-0.07249 -0.03699,-0.14849 -0.037,-0.225c0,-1.105 2.686,-2 6,-2c3.314,0 6,0.895 6,2zM3.215,4.207l1.493,8.957c0.08017,0.4822 0.49718,0.83577 0.986,0.836h4.612c0.48882,-0.00023 0.90583,-0.3538 0.986,-0.836l1.493,-8.957c-1.095,0.482 -2.831,0.793 -4.785,0.793c-1.954,0 -3.69,-0.311 -4.785,-0.793z"></path></g></g></svg>