<svg version="1.1" xmlns="http://www.w3.org/2000/svg" xmlns:xlink="http://www.w3.org/1999/xlink" width="16" height="16" viewBox="0,0,256,256"><g fill="#3f3f3f" fill-rule="nonzero" stroke="none" stroke-width="1" stroke-linecap="butt" stroke-linejoin="miter" stroke-miterlimit="10" stroke-dasharray="" stroke-dashoffset="0" font-family="none" font-weight="none" font-size="none" text-anchor="none" style="mix-blend-mode: normal"><g transform="translate(0.0021,0.0021) scale(16,16)"><path d="M4.646,4.646c0.0938,-0.09404 0.22117,-0.14689 0.354,-0.14689c0.13283,0 0.2602,0.05285 0.354,0.14689l2.646,2.647l2.646,-2.647c0.19551,-0.19551 0.51249,-0.19551 0.708,0c0.19551,0.19551 0.19551,0.51249 0,0.708l-2.647,2.646l2.647,2.646c0.19551,0.19551 0.19551,0.51249 0,0.708c-0.19551,0.19551 -0.51249,0.19551 -0.708,0l-2.646,-2.647l-2.646,2.647c-0.19551,0.19551 -0.51249,0.19551 -0.708,0c-0.19551,-0.19551 -0.19551,-0.51249 0,-0.708l2.647,-2.646l-2.647,-2.646c-0.09404,-0.0938 -0.14689,-0.22117 -0.14689,-0.354c0,-0.13283 0.05285,-0.2602 0.14689,-0.354z"></path></g></g></svg>