<svg version="1.1" xmlns="http://www.w3.org/2000/svg" xmlns:xlink="http://www.w3.org/1999/xlink" width="16" height="16" viewBox="0,0,256,256"><g fill="#1f1f1f" fill-rule="nonzero" stroke="none" stroke-width="1" stroke-linecap="butt" stroke-linejoin="miter" stroke-miterlimit="10" stroke-dasharray="" stroke-dashoffset="0" font-family="none" font-weight="none" font-size="none" text-anchor="none" style="mix-blend-mode: normal"><g transform="translate(0,0) scale(16,16)"><path d="M6.5,1h3c0.27614,0 0.5,0.22386 0.5,0.5v1h-4v-1c0,-0.27614 0.22386,-0.5 0.5,-0.5zM11,2.5v-1c0,-0.82843 -0.67157,-1.5 -1.5,-1.5h-3c-0.82843,0 -1.5,0.67157 -1.5,1.5v1h-2.494c-0.00333,-0.00003 -0.00667,-0.00003 -0.01,0h-0.996c-0.27614,0 -0.5,0.22386 -0.5,0.5c0,0.27614 0.22386,0.5 0.5,0.5h0.538l0.853,10.66c0.08341,1.03934 0.95132,1.84021 1.994,1.84h6.23c1.04268,0.00021 1.91059,-0.80066 1.994,-1.84l0.853,-10.66h0.538c0.27614,0 0.5,-0.22386 0.5,-0.5c0,-0.27614 -0.22386,-0.5 -0.5,-0.5h-0.995c-0.00333,-0.00003 -0.00667,-0.00003 -0.01,0zM12.958,3.5l-0.846,10.58c-0.04171,0.51967 -0.47566,0.92011 -0.997,0.92h-6.23c-0.52134,0.00011 -0.95529,-0.40033 -0.997,-0.92l-0.846,-10.58zM5.471,4.5c0.27556,-0.01593 0.5119,0.19445 0.528,0.47l0.5,8.5c0.01093,0.27205 -0.19782,0.50283 -0.46959,0.51917c-0.27177,0.01634 -0.50666,-0.18777 -0.52841,-0.45917l-0.501,-8.5c-0.0082,-0.13267 0.03676,-0.26314 0.12495,-0.36259c0.08819,-0.09945 0.21235,-0.15969 0.34505,-0.16741zM10.529,4.5c0.1327,0.00772 0.25686,0.06796 0.34505,0.16741c0.08819,0.09945 0.13315,0.22992 0.12495,0.36259l-0.5,8.5c-0.00726,0.18086 -0.11171,0.34367 -0.27307,0.42567c-0.16136,0.082 -0.35445,0.0704 -0.50482,-0.03035c-0.15038,-0.10075 -0.23456,-0.2749 -0.22011,-0.45532l0.5,-8.5c0.0161,-0.27555 0.25244,-0.48593 0.528,-0.47zM8,4.5c0.27614,0 0.5,0.22386 0.5,0.5v8.5c0,0.27614 -0.22386,0.5 -0.5,0.5c-0.27614,0 -0.5,-0.22386 -0.5,-0.5v-8.5c0,-0.27614 0.22386,-0.5 0.5,-0.5z"></path></g></g></svg>